<svg id="svg" version="1.1" xmlns="http://www.w3.org/2000/svg" xmlns:xlink="http://www.w3.org/1999/xlink" width="400" height="400" viewBox="0, 0, 400,400"><g id="svgg"><path id="path0" d="M75.809 56.980 C 75.332 57.871,75.000 64.629,75.000 73.438 C 75.000 82.246,75.332 89.004,75.809 89.895 C 77.018 92.155,106.825 92.229,108.863 89.978 C 110.911 87.715,110.792 58.630,108.728 56.762 C 106.382 54.639,76.957 54.834,75.809 56.980 M289.855 57.585 C 287.431 60.667,287.714 88.492,290.188 90.299 C 293.082 92.412,322.245 91.866,323.784 89.670 C 325.243 87.586,325.592 59.597,324.191 56.980 C 323.432 55.562,322.402 55.469,307.451 55.469 L 291.520 55.469 289.855 57.585 M112.695 91.808 C 110.977 93.030,110.938 93.391,110.938 108.098 C 110.938 127.933,112.763 126.108,92.601 126.425 L 76.480 126.679 75.740 128.625 C 75.333 129.695,75.000 137.215,75.000 145.336 C 75.000 163.366,76.862 161.719,56.475 161.719 C 34.458 161.719,35.216 161.006,35.181 181.752 C 35.152 199.549,37.144 197.656,18.442 197.656 L 4.199 197.656 2.099 199.847 L 0.000 202.039 0.000 253.618 L -0.000 305.196 2.014 307.090 C 4.760 309.672,33.150 310.545,34.936 308.103 C 35.714 307.038,35.937 299.206,35.937 272.981 C 35.937 242.925,36.073 239.178,37.173 238.755 C 38.785 238.137,72.152 238.137,73.764 238.755 C 74.864 239.178,75.000 242.864,75.000 272.293 C 75.000 301.310,75.150 305.507,76.228 306.585 C 77.263 307.621,79.944 307.813,93.371 307.813 C 113.459 307.812,111.719 309.569,111.719 289.294 C 111.719 274.339,111.729 274.246,113.477 273.820 C 118.171 272.677,288.334 273.820,289.079 275.000 C 289.487 275.645,289.825 282.939,289.832 291.211 C 289.847 310.931,288.326 309.379,307.617 309.363 C 315.674 309.356,322.793 309.018,323.438 308.611 C 324.444 307.975,324.641 303.054,324.836 273.688 C 325.007 248.017,325.299 239.357,326.008 238.906 C 327.651 237.862,362.058 238.152,363.125 239.219 C 363.825 239.919,364.063 248.616,364.063 273.538 C 364.063 303.358,364.198 307.056,365.336 308.194 C 367.672 310.529,395.323 309.595,397.986 307.090 L 400.000 305.196 400.000 253.526 L 400.000 201.855 397.852 199.816 L 395.703 197.778 379.220 197.522 C 358.152 197.194,360.156 199.105,360.156 179.357 C 360.156 159.876,361.933 161.719,343.152 161.719 C 323.217 161.719,325.017 163.322,324.922 145.480 C 324.879 137.439,324.600 129.980,324.302 128.906 L 323.761 126.953 308.054 126.563 C 287.356 126.048,289.062 127.704,289.062 108.126 C 289.062 89.135,290.503 90.625,272.143 90.625 C 251.989 90.625,253.156 89.498,253.125 108.984 C 253.112 117.148,252.768 124.355,252.360 125.000 C 251.239 126.774,148.761 126.774,147.640 125.000 C 147.232 124.355,146.894 117.115,146.887 108.910 C 146.871 89.557,148.384 91.091,129.022 90.787 C 116.672 90.593,114.185 90.749,112.695 91.808 M144.176 164.418 C 146.424 166.665,147.259 195.248,145.117 196.634 C 143.950 197.389,116.264 197.986,113.586 197.314 L 111.719 196.845 111.719 180.900 C 111.719 160.714,110.118 162.500,128.216 162.500 C 142.084 162.500,142.282 162.524,144.176 164.418 M287.054 163.728 C 288.089 164.764,288.281 167.447,288.281 180.900 L 288.281 196.845 286.414 197.314 C 283.736 197.986,256.050 197.389,254.883 196.634 C 252.741 195.248,253.576 166.665,255.824 164.418 C 258.281 161.961,284.703 161.377,287.054 163.728 M112.522 307.856 C 109.492 309.136,109.400 309.662,109.387 325.803 C 109.377 338.360,109.590 341.366,110.591 342.795 L 111.807 344.531 145.626 344.531 C 187.150 344.531,182.422 346.959,182.422 325.636 C 182.422 305.601,186.343 307.814,150.827 307.806 C 135.118 307.802,120.508 307.628,118.359 307.420 C 116.211 307.211,113.584 307.407,112.522 307.856 M240.841 308.398 C 219.595 308.610,218.761 308.676,217.943 310.205 C 216.336 313.208,217.289 340.927,219.066 342.889 C 220.861 344.870,286.182 345.537,288.125 343.594 C 288.798 342.921,289.063 337.743,289.063 325.234 L 289.063 307.813 275.977 307.995 C 268.779 308.096,252.968 308.277,240.841 308.398 " stroke="none" fill="#000000" fill-rule="evenodd"></path></g></svg>